<svg width="47" height="28" viewBox="0 0 47 28" fill="none" xmlns="http://www.w3.org/2000/svg">
<path d="M2.33547 14.536C2.24747 14.536 2.12347 14.524 1.96347 14.5C1.80347 14.484 1.65947 14.436 1.53147 14.356C1.40347 14.276 1.33947 14.156 1.33947 13.996C1.33947 13.908 1.36347 13.828 1.41147 13.756C1.45147 13.716 1.48747 13.692 1.51947 13.684C1.54347 13.684 1.55147 13.704 1.54347 13.744C1.51147 13.864 1.55147 13.976 1.66347 14.08C1.76747 14.192 1.87547 14.264 1.98747 14.296C2.11547 14.328 2.25147 14.344 2.39547 14.344C2.72347 14.344 3.02347 14.26 3.29547 14.092C3.56747 13.932 3.81147 13.724 4.02747 13.468C4.25147 13.22 4.45147 12.968 4.62747 12.712C5.03547 12.112 5.40347 11.496 5.73147 10.864C6.05947 10.224 6.39147 9.588 6.72747 8.956C7.06347 8.324 7.43947 7.716 7.85547 7.132C7.99147 6.94 8.15947 6.724 8.35947 6.484C8.55947 6.236 8.77947 6 9.01947 5.776C9.25947 5.552 9.50747 5.376 9.76347 5.248C9.65947 5.248 9.57147 5.244 9.49947 5.236C9.42747 5.228 9.30747 5.22 9.13947 5.212C8.82747 5.188 8.46747 5.176 8.05947 5.176C7.83547 5.176 7.61547 5.18 7.39947 5.188C7.19147 5.188 6.99547 5.196 6.81147 5.212C6.15547 5.252 5.49947 5.376 4.84347 5.584C4.19547 5.792 3.63947 6.108 3.17547 6.532C2.90347 6.78 2.67947 7.06 2.50347 7.372C2.32747 7.684 2.23947 7.992 2.23947 8.296C2.23947 8.64 2.33147 8.888 2.51547 9.04C2.70747 9.184 2.93147 9.256 3.18747 9.256C3.38747 9.256 3.58747 9.22 3.78747 9.148C4.17947 9.012 4.49947 8.772 4.74747 8.428C5.00347 8.076 5.11547 7.684 5.08347 7.252C5.07547 7.18 5.05947 7.108 5.03547 7.036C5.01147 6.964 4.97947 6.916 4.93947 6.892C4.90747 6.868 4.89147 6.844 4.89147 6.82C4.89947 6.796 4.92347 6.784 4.96347 6.784C5.13947 6.8 5.25947 6.9 5.32347 7.084C5.39547 7.26 5.43147 7.428 5.43147 7.588C5.43147 7.836 5.36747 8.076 5.23947 8.308C5.11147 8.532 4.94347 8.732 4.73547 8.908C4.53547 9.076 4.31947 9.204 4.08747 9.292C3.83947 9.388 3.57547 9.436 3.29547 9.436C2.92747 9.436 2.60347 9.332 2.32347 9.124C2.05147 8.916 1.91547 8.576 1.91547 8.104C1.91547 7.752 1.99947 7.42 2.16747 7.108C2.34347 6.796 2.55547 6.516 2.80347 6.268C3.33947 5.74 3.95947 5.38 4.66347 5.188C5.37547 4.996 6.09947 4.9 6.83547 4.9C7.41147 4.9 7.98747 4.932 8.56347 4.996C9.13947 5.052 9.71147 5.08 10.2795 5.08H10.5915C10.6315 5.088 10.6675 5.104 10.6995 5.128C10.7395 5.144 10.7515 5.172 10.7355 5.212C10.7355 5.26 10.7075 5.284 10.6515 5.284C10.5395 5.284 10.4515 5.3 10.3875 5.332C10.2195 5.388 10.0755 5.492 9.95547 5.644C9.83547 5.788 9.71947 5.964 9.60747 6.172C9.45547 6.444 9.36347 6.764 9.33147 7.132C9.30747 7.492 9.29147 7.824 9.28347 8.128C9.27547 8.552 9.25947 8.992 9.23547 9.448C9.21947 9.904 9.15147 10.352 9.03147 10.792C8.94347 11.136 8.81147 11.46 8.63547 11.764C8.46747 12.068 8.24747 12.344 7.97547 12.592C8.18347 12.512 8.39147 12.36 8.59947 12.136C8.80747 11.912 9.00347 11.668 9.18747 11.404C9.37947 11.14 9.53547 10.916 9.65547 10.732C9.99947 10.204 10.3595 9.624 10.7355 8.992C11.1195 8.36 11.5195 7.736 11.9355 7.12C12.3515 6.496 12.7835 5.944 13.2315 5.464C13.6235 5.04 14.0075 4.732 14.3835 4.54C14.7675 4.348 15.1155 4.252 15.4275 4.252C15.6995 4.252 15.9355 4.32 16.1355 4.456C16.3355 4.584 16.4755 4.768 16.5555 5.008C16.5555 5.016 16.5555 5.024 16.5555 5.032C16.5635 5.032 16.5675 5.036 16.5675 5.044C16.5675 5.1 16.5395 5.132 16.4835 5.14C16.4275 5.148 16.3915 5.14 16.3755 5.116C16.3035 4.788 16.0955 4.624 15.7515 4.624C15.5275 4.624 15.2515 4.712 14.9235 4.888C14.5955 5.064 14.2235 5.352 13.8075 5.752C13.3755 6.168 12.9475 6.66 12.5235 7.228C12.0995 7.796 11.6835 8.38 11.2755 8.98C10.8755 9.58 10.4755 10.144 10.0755 10.672C9.93147 10.864 9.74747 11.096 9.52347 11.368C9.30747 11.64 9.06747 11.912 8.80347 12.184C8.53947 12.448 8.27147 12.668 7.99947 12.844C7.72747 13.012 7.46747 13.088 7.21947 13.072C7.17147 13.072 7.14347 13.056 7.13547 13.024C7.13547 12.992 7.15547 12.964 7.19547 12.94C7.46747 12.748 7.68747 12.492 7.85547 12.172C8.02347 11.852 8.15947 11.504 8.26347 11.128C8.39947 10.608 8.48747 10.08 8.52747 9.544C8.57547 9.008 8.63547 8.472 8.70747 7.936C8.74747 7.688 8.79547 7.428 8.85147 7.156C8.91547 6.876 9.01147 6.624 9.13947 6.4C9.24347 6.216 9.38747 6.016 9.57147 5.8C9.75547 5.584 9.95947 5.428 10.1835 5.332C10.0475 5.3 9.89147 5.348 9.71547 5.476C9.54747 5.604 9.37947 5.772 9.21147 5.98C9.04347 6.18 8.89147 6.376 8.75547 6.568C8.62747 6.76 8.53547 6.9 8.47947 6.988C8.09547 7.596 7.74347 8.232 7.42347 8.896C7.11147 9.56 6.79147 10.216 6.46347 10.864C6.13547 11.512 5.75547 12.124 5.32347 12.7C5.09147 13.012 4.82747 13.308 4.53147 13.588C4.23547 13.876 3.91947 14.1 3.58347 14.26C3.38347 14.364 3.17547 14.436 2.95947 14.476C2.75147 14.516 2.54347 14.536 2.33547 14.536ZM12.0675 13.612C11.7635 13.612 11.5195 13.516 11.3355 13.324C11.1595 13.132 11.0715 12.848 11.0715 12.472C11.0795 12.096 11.1435 11.708 11.2635 11.308C11.3915 10.908 11.5515 10.512 11.7435 10.12C11.9435 9.72 12.1475 9.34 12.3555 8.98C12.8275 8.172 13.2995 7.456 13.7715 6.832C14.2515 6.208 14.6395 5.684 14.9355 5.26C14.9595 5.22 15.0035 5.204 15.0675 5.212C15.1315 5.212 15.1475 5.232 15.1155 5.272C14.7955 5.688 14.4715 6.2 14.1435 6.808C13.8235 7.408 13.4915 8.056 13.1475 8.752C13.0915 8.872 13.0035 9.068 12.8835 9.34C12.7715 9.604 12.6475 9.908 12.5115 10.252C12.3835 10.596 12.2595 10.94 12.1395 11.284C12.0195 11.62 11.9275 11.92 11.8635 12.184C11.8395 12.288 11.8195 12.388 11.8035 12.484C11.7875 12.572 11.7795 12.66 11.7795 12.748C11.7795 12.94 11.8195 13.092 11.8995 13.204C11.9875 13.324 12.1195 13.384 12.2955 13.384C12.4795 13.384 12.6755 13.296 12.8835 13.12C13.0915 12.952 13.2955 12.744 13.4955 12.496C13.6715 12.288 13.8315 12.068 13.9755 11.836C14.1275 11.604 14.2515 11.396 14.3475 11.212C14.3875 11.164 14.4155 11.14 14.4315 11.14C14.4555 11.14 14.4675 11.16 14.4675 11.2C14.4675 11.248 14.4515 11.304 14.4195 11.368C14.3235 11.552 14.1955 11.768 14.0355 12.016C13.8755 12.256 13.6955 12.488 13.4955 12.712C13.2715 12.96 13.0355 13.172 12.7875 13.348C12.5395 13.524 12.2995 13.612 12.0675 13.612ZM16.9362 13.084C16.6802 13.084 16.5042 13.004 16.4082 12.844C16.3122 12.676 16.2642 12.492 16.2642 12.292C16.2642 12.252 16.2682 12.184 16.2762 12.088C16.2922 11.984 16.3082 11.888 16.3242 11.8C16.2122 11.952 16.0762 12.12 15.9162 12.304C15.7642 12.488 15.6082 12.644 15.4482 12.772C15.1922 12.98 14.9602 13.084 14.7522 13.084C14.5522 13.084 14.3962 13 14.2842 12.832C14.1802 12.664 14.1282 12.452 14.1282 12.196C14.1282 11.868 14.2002 11.536 14.3442 11.2C14.4882 10.864 14.6762 10.548 14.9082 10.252C15.1482 9.948 15.4122 9.688 15.7002 9.472C15.8682 9.352 16.0722 9.256 16.3122 9.184C16.5602 9.104 16.8082 9.064 17.0562 9.064C17.3362 9.064 17.5802 9.108 17.7882 9.196C18.0042 9.276 18.1522 9.392 18.2322 9.544C18.0642 9.76 17.8922 10.028 17.7162 10.348C17.5402 10.66 17.3882 10.944 17.2602 11.2C17.1722 11.376 17.0762 11.596 16.9722 11.86C16.8682 12.116 16.8162 12.336 16.8162 12.52C16.8162 12.6 16.8362 12.68 16.8762 12.76C16.9162 12.84 16.9922 12.88 17.1042 12.88C17.2322 12.88 17.3562 12.832 17.4762 12.736C17.5962 12.64 17.6962 12.544 17.7762 12.448C17.9602 12.248 18.1282 12.028 18.2802 11.788C18.4322 11.548 18.5842 11.292 18.7362 11.02C18.7602 10.988 18.7842 10.972 18.8082 10.972C18.8402 10.972 18.8562 10.996 18.8562 11.044C18.8562 11.084 18.8482 11.116 18.8322 11.14C18.6962 11.404 18.5442 11.668 18.3762 11.932C18.2082 12.196 18.0082 12.444 17.7762 12.676C17.6642 12.788 17.5322 12.884 17.3802 12.964C17.2282 13.044 17.0802 13.084 16.9362 13.084ZM15.0162 12.712C15.1682 12.712 15.3322 12.632 15.5082 12.472C15.6922 12.304 15.8682 12.104 16.0362 11.872C16.2122 11.632 16.3682 11.404 16.5042 11.188C16.6482 10.964 16.7602 10.792 16.8402 10.672C17.0082 10.408 17.1642 10.188 17.3082 10.012C17.4522 9.836 17.6762 9.7 17.9802 9.604C17.9962 9.604 18.0082 9.604 18.0162 9.604C18.0322 9.596 18.0482 9.592 18.0642 9.592C17.9922 9.48 17.8722 9.396 17.7042 9.34C17.5362 9.284 17.3722 9.256 17.2122 9.256C16.9642 9.256 16.7242 9.324 16.4922 9.46C16.2602 9.596 16.0482 9.768 15.8562 9.976C15.6722 10.192 15.4922 10.428 15.3162 10.684C15.1402 10.94 14.9962 11.2 14.8842 11.464C14.7802 11.728 14.7282 11.98 14.7282 12.22C14.7282 12.348 14.7482 12.464 14.7882 12.568C14.8362 12.664 14.9122 12.712 15.0162 12.712ZM20.8773 13.072C20.6453 13.072 20.4613 13 20.3253 12.856C20.1973 12.712 20.1333 12.532 20.1333 12.316C20.1333 12.212 20.1533 12.092 20.1933 11.956C20.3053 11.604 20.4813 11.256 20.7213 10.912C20.9693 10.56 21.1733 10.212 21.3333 9.868C21.3893 9.756 21.4173 9.656 21.4173 9.568C21.4173 9.48 21.3893 9.416 21.3333 9.376C21.2853 9.328 21.2253 9.304 21.1533 9.304C21.0493 9.304 20.9173 9.348 20.7573 9.436C20.6053 9.516 20.4293 9.672 20.2293 9.904C20.1093 10.048 19.9733 10.224 19.8213 10.432C19.6693 10.64 19.5453 10.828 19.4493 10.996C19.2893 11.268 19.1453 11.544 19.0173 11.824C18.8893 12.096 18.7773 12.348 18.6813 12.58C18.6013 12.764 18.5053 12.884 18.3933 12.94C18.2813 12.988 18.1733 13.008 18.0693 13C17.9653 12.992 17.8853 12.992 17.8293 13C18.0533 12.56 18.2733 12.096 18.4893 11.608C18.7053 11.12 18.8893 10.632 19.0413 10.144C19.1133 9.92 19.1733 9.704 19.2213 9.496C19.2693 9.28 19.2893 9.14 19.2812 9.076V9.052C19.2812 8.988 19.3133 8.972 19.3773 9.004C19.4813 9.06 19.5533 9.144 19.5933 9.256C19.6333 9.36 19.6533 9.48 19.6533 9.616C19.6533 9.768 19.6333 9.932 19.5933 10.108C19.5533 10.276 19.5053 10.428 19.4493 10.564C19.5533 10.42 19.6653 10.276 19.7853 10.132C19.9053 9.98 20.0373 9.836 20.1813 9.7C20.3493 9.532 20.5293 9.388 20.7213 9.268C20.9133 9.14 21.1213 9.076 21.3453 9.076C21.5613 9.076 21.7173 9.124 21.8133 9.22C21.9173 9.316 21.9693 9.444 21.9693 9.604C21.9693 9.772 21.9213 9.964 21.8253 10.18C21.7213 10.428 21.5933 10.676 21.4413 10.924C21.2973 11.172 21.1653 11.412 21.0453 11.644C21.0213 11.692 20.9813 11.768 20.9253 11.872C20.8773 11.968 20.8333 12.076 20.7933 12.196C20.7773 12.252 20.7613 12.312 20.7453 12.376C20.7293 12.432 20.7213 12.492 20.7213 12.556C20.7213 12.636 20.7373 12.712 20.7693 12.784C20.8093 12.848 20.8813 12.88 20.9853 12.88C21.1213 12.88 21.2493 12.836 21.3693 12.748C21.4973 12.652 21.6053 12.552 21.6933 12.448C21.8773 12.248 22.0453 12.028 22.1973 11.788C22.3573 11.54 22.5133 11.28 22.6653 11.008C22.6893 10.976 22.7053 10.96 22.7133 10.96C22.7453 10.96 22.7613 10.996 22.7613 11.068C22.7613 11.116 22.7533 11.152 22.7373 11.176C22.5933 11.44 22.4413 11.7 22.2813 11.956C22.1213 12.204 21.9253 12.444 21.6933 12.676C21.5893 12.78 21.4693 12.872 21.3333 12.952C21.1973 13.032 21.0453 13.072 20.8773 13.072ZM23.5553 13.24C23.2513 13.24 22.9873 13.144 22.7633 12.952C22.5473 12.752 22.4393 12.448 22.4393 12.04C22.4393 11.784 22.4833 11.52 22.5713 11.248C22.6673 10.968 22.7713 10.72 22.8833 10.504C23.0913 10.112 23.3513 9.772 23.6633 9.484C23.9833 9.188 24.3633 9.04 24.8033 9.04C25.2273 9.04 25.5233 9.156 25.6913 9.388C25.8593 9.62 25.9433 9.904 25.9433 10.24C25.9433 10.376 25.9313 10.516 25.9073 10.66C25.8433 11.052 25.7113 11.432 25.5113 11.8C25.5673 11.88 25.6393 11.948 25.7273 12.004C25.8233 12.052 25.9273 12.076 26.0393 12.076C26.2313 12.076 26.3953 12.024 26.5313 11.92C26.6673 11.816 26.7833 11.688 26.8793 11.536C26.9833 11.376 27.0713 11.228 27.1433 11.092C27.1913 11.004 27.2353 10.96 27.2753 10.96C27.2993 10.96 27.3113 10.976 27.3113 11.008C27.3113 11.04 27.2873 11.112 27.2393 11.224C27.1033 11.496 26.9433 11.732 26.7593 11.932C26.5753 12.132 26.3353 12.232 26.0393 12.232C25.7673 12.232 25.5593 12.136 25.4153 11.944C25.1913 12.312 24.9193 12.62 24.5993 12.868C24.2793 13.116 23.9313 13.24 23.5553 13.24ZM23.5793 13.096C23.9713 13.096 24.3593 12.904 24.7433 12.52C24.8553 12.408 24.9553 12.292 25.0433 12.172C25.1393 12.044 25.2233 11.916 25.2953 11.788C25.1913 11.668 25.1153 11.54 25.0673 11.404C25.0273 11.26 25.0073 11.124 25.0073 10.996C25.0073 10.796 25.0433 10.62 25.1153 10.468C25.1873 10.308 25.2873 10.228 25.4153 10.228C25.4793 10.228 25.5393 10.26 25.5953 10.324C25.6593 10.388 25.6993 10.488 25.7153 10.624C25.7393 10.512 25.7513 10.392 25.7513 10.264C25.7513 9.96 25.6953 9.72 25.5833 9.544C25.4713 9.36 25.2833 9.268 25.0193 9.268C24.8593 9.268 24.6953 9.332 24.5273 9.46C24.3593 9.58 24.1993 9.728 24.0473 9.904C23.9033 10.08 23.7753 10.26 23.6633 10.444C23.5513 10.628 23.4673 10.78 23.4113 10.9C23.2753 11.196 23.1753 11.46 23.1113 11.692C23.0553 11.924 23.0273 12.128 23.0273 12.304C23.0273 12.56 23.0793 12.756 23.1833 12.892C23.2953 13.028 23.4273 13.096 23.5793 13.096ZM29.3265 13.072C29.0945 13.072 28.9105 13 28.7745 12.856C28.6465 12.712 28.5825 12.532 28.5825 12.316C28.5825 12.212 28.6025 12.092 28.6425 11.956C28.7545 11.604 28.9305 11.256 29.1705 10.912C29.4185 10.56 29.6225 10.212 29.7825 9.868C29.8385 9.756 29.8665 9.656 29.8665 9.568C29.8665 9.48 29.8385 9.416 29.7825 9.376C29.7345 9.328 29.6745 9.304 29.6025 9.304C29.4985 9.304 29.3665 9.348 29.2065 9.436C29.0545 9.516 28.8785 9.672 28.6785 9.904C28.5585 10.048 28.4225 10.224 28.2705 10.432C28.1185 10.64 27.9945 10.828 27.8985 10.996C27.7385 11.268 27.5945 11.544 27.4665 11.824C27.3385 12.096 27.2265 12.348 27.1305 12.58C27.0505 12.764 26.9545 12.884 26.8425 12.94C26.7305 12.988 26.6225 13.008 26.5185 13C26.4145 12.992 26.3345 12.992 26.2785 13C26.5025 12.56 26.7225 12.096 26.9385 11.608C27.1545 11.12 27.3385 10.632 27.4905 10.144C27.5625 9.92 27.6225 9.704 27.6705 9.496C27.7185 9.28 27.7385 9.14 27.7305 9.076V9.052C27.7305 8.988 27.7625 8.972 27.8265 9.004C27.9305 9.06 28.0025 9.144 28.0425 9.256C28.0825 9.36 28.1025 9.48 28.1025 9.616C28.1025 9.768 28.0825 9.932 28.0425 10.108C28.0025 10.276 27.9545 10.428 27.8985 10.564C28.0025 10.42 28.1145 10.276 28.2345 10.132C28.3545 9.98 28.4865 9.836 28.6305 9.7C28.7985 9.532 28.9785 9.388 29.1705 9.268C29.3625 9.14 29.5705 9.076 29.7945 9.076C30.0105 9.076 30.1665 9.124 30.2625 9.22C30.3665 9.316 30.4185 9.444 30.4185 9.604C30.4185 9.772 30.3705 9.964 30.2745 10.18C30.1705 10.428 30.0425 10.676 29.8905 10.924C29.7465 11.172 29.6145 11.412 29.4945 11.644C29.4705 11.692 29.4305 11.768 29.3745 11.872C29.3265 11.968 29.2825 12.076 29.2425 12.196C29.2265 12.252 29.2105 12.312 29.1945 12.376C29.1785 12.432 29.1705 12.492 29.1705 12.556C29.1705 12.636 29.1865 12.712 29.2185 12.784C29.2585 12.848 29.3305 12.88 29.4345 12.88C29.5705 12.88 29.6985 12.836 29.8185 12.748C29.9465 12.652 30.0545 12.552 30.1425 12.448C30.3265 12.248 30.4945 12.028 30.6465 11.788C30.8065 11.54 30.9625 11.28 31.1145 11.008C31.1385 10.976 31.1545 10.96 31.1625 10.96C31.1945 10.96 31.2105 10.996 31.2105 11.068C31.2105 11.116 31.2025 11.152 31.1865 11.176C31.0425 11.44 30.8905 11.7 30.7305 11.956C30.5705 12.204 30.3745 12.444 30.1425 12.676C30.0385 12.78 29.9185 12.872 29.7825 12.952C29.6465 13.032 29.4945 13.072 29.3265 13.072Z" fill="white"/>
<path d="M11.6037 26.092C11.5237 26.092 11.3957 26.08 11.2197 26.056C11.0517 26.032 10.8957 25.98 10.7517 25.9C10.6077 25.82 10.5357 25.696 10.5357 25.528C10.5357 25.424 10.5597 25.344 10.6077 25.288C10.6397 25.248 10.6717 25.228 10.7037 25.228C10.7357 25.228 10.7437 25.248 10.7277 25.288C10.7037 25.408 10.7477 25.52 10.8597 25.624C10.9717 25.736 11.0837 25.808 11.1957 25.84C11.2757 25.856 11.3517 25.868 11.4237 25.876C11.4957 25.892 11.5637 25.9 11.6277 25.9C11.9477 25.9 12.2397 25.816 12.5037 25.648C12.7677 25.488 13.0037 25.28 13.2117 25.024C13.4277 24.776 13.6197 24.524 13.7877 24.268C14.0277 23.9 14.2637 23.48 14.4957 23.008C14.7277 22.536 14.9677 22.052 15.2157 21.556C15.4637 21.052 15.7237 20.564 15.9957 20.092C16.2757 19.62 16.5797 19.2 16.9077 18.832C17.2357 18.456 17.5957 18.168 17.9877 17.968C18.2437 17.832 18.4877 17.764 18.7197 17.764C18.8477 17.764 18.9637 17.78 19.0677 17.812C19.0997 17.82 19.1077 17.84 19.0917 17.872C19.0837 17.904 19.0637 17.916 19.0317 17.908C18.9997 17.892 18.9637 17.884 18.9237 17.884C18.8917 17.884 18.8557 17.884 18.8157 17.884C18.3997 17.884 17.9637 18.152 17.5077 18.688C17.0997 19.168 16.7597 19.684 16.4877 20.236C16.2157 20.78 15.9517 21.336 15.6957 21.904H15.7077C15.7877 21.944 15.8757 21.98 15.9717 22.012C16.3237 22.124 16.6757 22.18 17.0277 22.18C17.4117 22.18 17.7957 22.116 18.1797 21.988C18.5637 21.86 18.9117 21.676 19.2237 21.436C19.5437 21.196 19.7997 20.908 19.9917 20.572C20.1837 20.228 20.2797 19.844 20.2797 19.42C20.2797 19.044 20.1877 18.684 20.0037 18.34C19.8197 17.996 19.5397 17.708 19.1637 17.476C18.7717 17.22 18.3037 17.036 17.7597 16.924C17.2237 16.804 16.6637 16.744 16.0797 16.744C15.4077 16.744 14.7517 16.852 14.1117 17.068C13.4797 17.276 12.9637 17.572 12.5637 17.956C12.3557 18.156 12.1677 18.424 11.9997 18.76C11.8397 19.088 11.7597 19.416 11.7597 19.744C11.7597 19.816 11.7637 19.888 11.7717 19.96C11.7797 20.032 11.7957 20.104 11.8197 20.176C11.8917 20.4 12.0277 20.572 12.2277 20.692C12.4357 20.812 12.6637 20.872 12.9117 20.872C13.0157 20.872 13.1197 20.86 13.2237 20.836C13.3357 20.812 13.4437 20.784 13.5477 20.752H13.5717C13.5957 20.752 13.6077 20.764 13.6077 20.788C13.6077 20.82 13.5877 20.844 13.5477 20.86C13.3237 20.932 13.0837 20.968 12.8277 20.968C12.5717 20.968 12.3237 20.924 12.0837 20.836C11.8517 20.74 11.6597 20.596 11.5077 20.404C11.3637 20.204 11.2917 19.944 11.2917 19.624C11.2917 19.376 11.3237 19.144 11.3877 18.928C11.4597 18.712 11.5557 18.512 11.6757 18.328C11.9397 17.928 12.3117 17.6 12.7917 17.344C13.2797 17.08 13.8157 16.884 14.3997 16.756C14.9917 16.62 15.5757 16.552 16.1517 16.552C16.7437 16.552 17.3157 16.592 17.8677 16.672C18.4197 16.752 18.8997 16.884 19.3077 17.068C19.8997 17.316 20.3237 17.64 20.5797 18.04C20.8437 18.432 20.9757 18.844 20.9757 19.276C20.9757 19.772 20.8597 20.216 20.6277 20.608C20.3957 20.992 20.0877 21.316 19.7037 21.58C19.3197 21.844 18.8997 22.044 18.4437 22.18C17.9957 22.316 17.5557 22.384 17.1237 22.384C16.9077 22.384 16.6957 22.368 16.4877 22.336C16.2797 22.296 16.0757 22.248 15.8757 22.192C15.8357 22.176 15.7957 22.16 15.7557 22.144C15.7237 22.128 15.6877 22.112 15.6477 22.096C15.6397 22.096 15.6317 22.096 15.6237 22.096C15.6157 22.088 15.6077 22.084 15.5997 22.084C15.4237 22.468 15.2397 22.848 15.0477 23.224C14.8637 23.592 14.6517 23.948 14.4117 24.292C14.1957 24.596 13.9517 24.88 13.6797 25.144C13.4077 25.416 13.1077 25.636 12.7797 25.804C12.5957 25.892 12.4037 25.96 12.2037 26.008C12.0117 26.064 11.8117 26.092 11.6037 26.092ZM22.5429 24.976C22.2549 25.144 21.9589 25.228 21.6549 25.228C21.3509 25.228 21.0869 25.132 20.8629 24.94C20.6469 24.748 20.5389 24.448 20.5389 24.04C20.5389 23.864 20.5629 23.676 20.6109 23.476C20.6509 23.3 20.7029 23.128 20.7669 22.96C20.8309 22.792 20.9029 22.64 20.9829 22.504C21.0149 22.448 21.0469 22.396 21.0789 22.348C21.1109 22.292 21.1429 22.236 21.1749 22.18C21.1109 22.212 21.0149 22.296 20.8869 22.432C20.7669 22.56 20.6629 22.672 20.5749 22.768C20.3029 23.08 20.0189 23.404 19.7229 23.74C19.4269 24.076 19.0909 24.36 18.7149 24.592C18.5629 24.68 18.3909 24.756 18.1989 24.82C18.0069 24.876 17.8189 24.904 17.6349 24.904C17.4589 24.904 17.2789 24.86 17.0949 24.772C16.9109 24.676 16.8189 24.504 16.8189 24.256C16.8189 24.144 16.8429 24.032 16.8909 23.92C16.9309 23.808 16.9949 23.712 17.0829 23.632C17.1229 23.592 17.1789 23.556 17.2509 23.524C17.3229 23.492 17.3789 23.468 17.4189 23.452C17.4589 23.436 17.4989 23.436 17.5389 23.452C17.5709 23.46 17.5669 23.48 17.5269 23.512C17.4789 23.536 17.4349 23.56 17.3949 23.584C17.3549 23.608 17.3149 23.64 17.2749 23.68C17.1229 23.816 17.0469 23.988 17.0469 24.196C17.0469 24.292 17.0709 24.38 17.1189 24.46C17.1669 24.532 17.2429 24.588 17.3469 24.628C17.4349 24.652 17.5229 24.664 17.6109 24.664C17.8509 24.664 18.1109 24.592 18.3909 24.448C18.6629 24.304 18.9349 24.124 19.2069 23.908C19.4709 23.684 19.7149 23.46 19.9389 23.236C20.1629 23.004 20.3469 22.804 20.4909 22.636C20.6669 22.428 20.8829 22.2 21.1389 21.952C21.4029 21.704 21.6869 21.492 21.9909 21.316C22.2949 21.132 22.5989 21.04 22.9029 21.04C23.3269 21.04 23.6229 21.156 23.7909 21.388C23.9589 21.62 24.0429 21.904 24.0429 22.24C24.0429 22.376 24.0309 22.516 24.0069 22.66C23.9749 22.836 23.9269 23.012 23.8629 23.188C23.8069 23.364 23.7189 23.564 23.5989 23.788C23.6629 23.868 23.7429 23.936 23.8389 23.992C23.9349 24.048 24.0389 24.076 24.1509 24.076C24.1829 24.076 24.2109 24.076 24.2349 24.076C24.2669 24.068 24.2989 24.06 24.3309 24.052C24.4429 24.028 24.5589 23.968 24.6789 23.872C24.7829 23.792 24.8909 23.664 25.0029 23.488C25.1149 23.312 25.1949 23.18 25.2429 23.092C25.2909 23.004 25.3349 22.96 25.3749 22.96C25.3989 22.96 25.4109 22.976 25.4109 23.008C25.4109 23.04 25.3869 23.112 25.3389 23.224C25.2829 23.344 25.2029 23.48 25.0989 23.632C25.0029 23.784 24.8989 23.904 24.7869 23.992C24.6429 24.096 24.4909 24.168 24.3309 24.208C24.2989 24.216 24.2629 24.224 24.2229 24.232C24.1909 24.232 24.1589 24.232 24.1269 24.232C23.8629 24.232 23.6589 24.136 23.5149 23.944C23.4029 24.136 23.2629 24.328 23.0949 24.52C22.9349 24.704 22.7509 24.856 22.5429 24.976ZM21.6789 25.096C22.0709 25.096 22.4589 24.904 22.8429 24.52C22.9549 24.408 23.0549 24.292 23.1429 24.172C23.2389 24.044 23.3229 23.916 23.3949 23.788C23.2909 23.668 23.2149 23.52 23.1669 23.344C23.1189 23.168 23.0949 22.996 23.0949 22.828C23.0949 22.684 23.1149 22.544 23.1549 22.408C23.1949 22.296 23.2549 22.204 23.3349 22.132C23.4149 22.06 23.4989 22.024 23.5869 22.024C23.6269 22.024 23.6709 22.036 23.7189 22.06C23.7589 22.076 23.7869 22.1 23.8029 22.132C23.8269 22.156 23.8429 22.18 23.8509 22.204C23.8589 21.94 23.8029 21.72 23.6829 21.544C23.5709 21.36 23.3829 21.268 23.1189 21.268C22.9589 21.268 22.7949 21.332 22.6269 21.46C22.4589 21.58 22.2989 21.728 22.1469 21.904C22.0029 22.08 21.8749 22.26 21.7629 22.444C21.6509 22.628 21.5669 22.78 21.5109 22.9C21.3749 23.196 21.2749 23.46 21.2109 23.692C21.1549 23.924 21.1269 24.128 21.1269 24.304C21.1269 24.56 21.1789 24.756 21.2829 24.892C21.3949 25.028 21.5269 25.096 21.6789 25.096ZM27.4261 25.072C27.1941 25.072 27.0101 25 26.8741 24.856C26.7461 24.712 26.6821 24.532 26.6821 24.316C26.6821 24.212 26.7021 24.092 26.7421 23.956C26.8541 23.604 27.0301 23.256 27.2701 22.912C27.5181 22.56 27.7221 22.212 27.8821 21.868C27.9381 21.756 27.9661 21.656 27.9661 21.568C27.9661 21.48 27.9381 21.416 27.8821 21.376C27.8341 21.328 27.7741 21.304 27.7021 21.304C27.5981 21.304 27.4661 21.348 27.3061 21.436C27.1541 21.516 26.9781 21.672 26.7781 21.904C26.6581 22.048 26.5221 22.224 26.3701 22.432C26.2181 22.64 26.0941 22.828 25.9981 22.996C25.8381 23.268 25.6941 23.544 25.5661 23.824C25.4381 24.096 25.3261 24.348 25.2301 24.58C25.1501 24.764 25.0541 24.884 24.9421 24.94C24.8301 24.988 24.7221 25.008 24.6181 25C24.5141 24.992 24.4341 24.992 24.3781 25C24.6021 24.56 24.8221 24.096 25.0381 23.608C25.2541 23.12 25.4381 22.632 25.5901 22.144C25.6621 21.92 25.7221 21.704 25.7701 21.496C25.8181 21.28 25.8381 21.14 25.8301 21.076V21.052C25.8301 20.988 25.8621 20.972 25.9261 21.004C26.0301 21.06 26.1021 21.144 26.1421 21.256C26.1821 21.36 26.2021 21.48 26.2021 21.616C26.2021 21.768 26.1821 21.932 26.1421 22.108C26.1021 22.276 26.0541 22.428 25.9981 22.564C26.1021 22.42 26.2141 22.276 26.3341 22.132C26.4541 21.98 26.5861 21.836 26.7301 21.7C26.8981 21.532 27.0781 21.388 27.2701 21.268C27.4621 21.14 27.6701 21.076 27.8941 21.076C28.1101 21.076 28.2661 21.124 28.3621 21.22C28.4661 21.316 28.5181 21.444 28.5181 21.604C28.5181 21.772 28.4701 21.964 28.3741 22.18C28.2701 22.428 28.1421 22.676 27.9901 22.924C27.8461 23.172 27.7141 23.412 27.5941 23.644C27.5701 23.692 27.5301 23.768 27.4741 23.872C27.4261 23.968 27.3821 24.076 27.3421 24.196C27.3261 24.252 27.3101 24.312 27.2941 24.376C27.2781 24.432 27.2701 24.492 27.2701 24.556C27.2701 24.636 27.2861 24.712 27.3181 24.784C27.3581 24.848 27.4301 24.88 27.5341 24.88C27.6701 24.88 27.7981 24.836 27.9181 24.748C28.0461 24.652 28.1541 24.552 28.2421 24.448C28.4261 24.248 28.5941 24.028 28.7461 23.788C28.9061 23.54 29.0621 23.28 29.2141 23.008C29.2381 22.976 29.2541 22.96 29.2621 22.96C29.2941 22.96 29.3101 22.996 29.3101 23.068C29.3101 23.116 29.3021 23.152 29.2861 23.176C29.1421 23.44 28.9901 23.7 28.8301 23.956C28.6701 24.204 28.4741 24.444 28.2421 24.676C28.1381 24.78 28.0181 24.872 27.8821 24.952C27.7461 25.032 27.5941 25.072 27.4261 25.072ZM29.6121 25.084C29.4121 25.084 29.2321 25.028 29.0721 24.916C28.9201 24.796 28.8441 24.604 28.8441 24.34C28.8441 24.06 28.9121 23.752 29.0481 23.416C29.1841 23.08 29.3121 22.78 29.4321 22.516C29.4961 22.388 29.5801 22.216 29.6841 22C29.7961 21.776 29.9161 21.556 30.0441 21.34H29.4801C29.4561 21.34 29.4441 21.32 29.4441 21.28C29.4441 21.248 29.4561 21.216 29.4801 21.184C29.5041 21.144 29.5321 21.124 29.5641 21.124C29.7881 21.124 29.9561 21.104 30.0681 21.064C30.1801 21.024 30.2761 20.968 30.3561 20.896C30.4841 20.784 30.6081 20.64 30.7281 20.464C30.8561 20.288 30.9801 20.136 31.1001 20.008C31.1881 19.896 31.2961 19.812 31.4241 19.756C31.5601 19.7 31.6481 19.68 31.6881 19.696C31.6481 19.752 31.5841 19.848 31.4961 19.984C31.4081 20.12 31.3161 20.268 31.2201 20.428C31.1241 20.588 31.0361 20.736 30.9561 20.872C30.8761 21.008 30.8241 21.1 30.8001 21.148H31.5921C31.6161 21.148 31.6281 21.156 31.6281 21.172C31.6281 21.204 31.6081 21.24 31.5681 21.28C31.5361 21.32 31.5041 21.34 31.4721 21.34H30.6921C30.5481 21.588 30.3761 21.912 30.1761 22.312C29.9841 22.704 29.8121 23.084 29.6601 23.452C29.6281 23.524 29.5721 23.668 29.4921 23.884C29.4201 24.1 29.3841 24.3 29.3841 24.484C29.3841 24.604 29.4081 24.704 29.4561 24.784C29.5121 24.864 29.6041 24.904 29.7321 24.904C29.8681 24.904 30.0161 24.856 30.1761 24.76C30.3361 24.656 30.4601 24.552 30.5481 24.448C30.7321 24.248 30.9001 24.028 31.0521 23.788C31.2041 23.548 31.3561 23.292 31.5081 23.02C31.5321 22.988 31.5561 22.972 31.5801 22.972C31.6121 22.972 31.6281 22.996 31.6281 23.044C31.6281 23.084 31.6201 23.116 31.6041 23.14C31.4601 23.404 31.3041 23.668 31.1361 23.932C30.9761 24.196 30.7801 24.444 30.5481 24.676C30.4441 24.78 30.3041 24.876 30.1281 24.964C29.9521 25.044 29.7801 25.084 29.6121 25.084ZM33.9967 25.084C33.7407 25.084 33.5647 25.004 33.4687 24.844C33.3727 24.676 33.3247 24.492 33.3247 24.292C33.3247 24.252 33.3287 24.184 33.3367 24.088C33.3527 23.984 33.3687 23.888 33.3847 23.8C33.2727 23.952 33.1367 24.12 32.9767 24.304C32.8247 24.488 32.6687 24.644 32.5087 24.772C32.2527 24.98 32.0207 25.084 31.8127 25.084C31.6127 25.084 31.4567 25 31.3447 24.832C31.2407 24.664 31.1887 24.452 31.1887 24.196C31.1887 23.868 31.2607 23.536 31.4047 23.2C31.5487 22.864 31.7367 22.548 31.9687 22.252C32.2087 21.948 32.4727 21.688 32.7607 21.472C32.9287 21.352 33.1327 21.256 33.3727 21.184C33.6207 21.104 33.8687 21.064 34.1167 21.064C34.3967 21.064 34.6407 21.108 34.8487 21.196C35.0647 21.276 35.2127 21.392 35.2927 21.544C35.1247 21.76 34.9527 22.028 34.7767 22.348C34.6007 22.66 34.4487 22.944 34.3207 23.2C34.2327 23.376 34.1367 23.596 34.0327 23.86C33.9287 24.116 33.8767 24.336 33.8767 24.52C33.8767 24.6 33.8967 24.68 33.9367 24.76C33.9767 24.84 34.0527 24.88 34.1647 24.88C34.2927 24.88 34.4167 24.832 34.5367 24.736C34.6567 24.64 34.7567 24.544 34.8367 24.448C35.0207 24.248 35.1887 24.028 35.3407 23.788C35.4927 23.548 35.6447 23.292 35.7967 23.02C35.8207 22.988 35.8447 22.972 35.8687 22.972C35.9007 22.972 35.9167 22.996 35.9167 23.044C35.9167 23.084 35.9087 23.116 35.8927 23.14C35.7567 23.404 35.6047 23.668 35.4367 23.932C35.2687 24.196 35.0687 24.444 34.8367 24.676C34.7247 24.788 34.5927 24.884 34.4407 24.964C34.2887 25.044 34.1407 25.084 33.9967 25.084ZM32.0767 24.712C32.2287 24.712 32.3927 24.632 32.5687 24.472C32.7527 24.304 32.9287 24.104 33.0967 23.872C33.2727 23.632 33.4287 23.404 33.5647 23.188C33.7087 22.964 33.8207 22.792 33.9007 22.672C34.0687 22.408 34.2247 22.188 34.3687 22.012C34.5127 21.836 34.7367 21.7 35.0407 21.604C35.0567 21.604 35.0687 21.604 35.0767 21.604C35.0927 21.596 35.1087 21.592 35.1247 21.592C35.0527 21.48 34.9327 21.396 34.7647 21.34C34.5967 21.284 34.4327 21.256 34.2727 21.256C34.0247 21.256 33.7847 21.324 33.5527 21.46C33.3207 21.596 33.1087 21.768 32.9167 21.976C32.7327 22.192 32.5527 22.428 32.3767 22.684C32.2007 22.94 32.0567 23.2 31.9447 23.464C31.8407 23.728 31.7887 23.98 31.7887 24.22C31.7887 24.348 31.8087 24.464 31.8487 24.568C31.8967 24.664 31.9727 24.712 32.0767 24.712ZM36.0538 25.096C35.8858 25.096 35.7298 25.064 35.5858 25C35.4498 24.928 35.3378 24.808 35.2498 24.64C35.1858 24.496 35.1538 24.34 35.1538 24.172C35.1538 23.996 35.1858 23.832 35.2498 23.68C35.3138 23.544 35.3858 23.424 35.4658 23.32C35.5458 23.216 35.6338 23.156 35.7298 23.14C35.8018 22.98 35.9098 22.768 36.0538 22.504C36.2058 22.24 36.3738 21.976 36.5578 21.712C36.7498 21.448 36.9298 21.236 37.0978 21.076C37.1378 21.036 37.2058 20.972 37.3018 20.884C37.4058 20.788 37.5218 20.696 37.6498 20.608C37.7858 20.52 37.9098 20.468 38.0218 20.452C38.0458 20.444 38.0778 20.44 38.1178 20.44C38.2138 20.44 38.2858 20.464 38.3338 20.512C38.3818 20.56 38.4058 20.616 38.4058 20.68C38.4058 20.744 38.3818 20.808 38.3338 20.872C38.2858 20.936 38.2098 20.988 38.1058 21.028C38.0658 21.036 38.0058 21.048 37.9258 21.064C37.8538 21.08 37.7458 21.088 37.6018 21.088C37.5458 21.168 37.5178 21.28 37.5178 21.424C37.5178 21.584 37.5418 21.764 37.5898 21.964C37.6458 22.164 37.6978 22.36 37.7458 22.552C37.8018 22.736 37.8298 22.892 37.8298 23.02C37.8458 23.316 37.7978 23.616 37.6858 23.92C37.5818 24.216 37.4138 24.468 37.1818 24.676L37.0138 24.796C37.0378 24.804 37.0618 24.812 37.0858 24.82C37.1098 24.82 37.1338 24.82 37.1578 24.82C37.2938 24.82 37.4458 24.78 37.6138 24.7C37.7818 24.612 37.9298 24.504 38.0578 24.376C38.2498 24.192 38.4138 23.996 38.5498 23.788C38.6938 23.58 38.8258 23.364 38.9458 23.14C38.9538 23.108 38.9738 23.092 39.0058 23.092C39.0458 23.092 39.0658 23.124 39.0658 23.188C39.0658 23.22 39.0538 23.256 39.0298 23.296C38.9098 23.52 38.7618 23.756 38.5858 24.004C38.4178 24.244 38.2418 24.448 38.0578 24.616C37.9138 24.744 37.7578 24.84 37.5898 24.904C37.4298 24.96 37.2938 24.988 37.1818 24.988C37.1018 24.988 37.0378 24.98 36.9898 24.964C36.9418 24.948 36.8978 24.924 36.8578 24.892C36.7458 24.948 36.6178 24.996 36.4738 25.036C36.3378 25.076 36.1978 25.096 36.0538 25.096ZM36.5098 24.784C36.6698 24.672 36.7938 24.528 36.8818 24.352C36.9778 24.176 37.0498 23.988 37.0978 23.788C37.1618 23.548 37.1978 23.3 37.2058 23.044C37.2218 22.788 37.2298 22.556 37.2298 22.348V21.928C37.2298 21.76 37.2498 21.588 37.2898 21.412C37.3378 21.236 37.3858 21.128 37.4338 21.088C37.3138 21.136 37.1818 21.244 37.0378 21.412C36.8938 21.572 36.7498 21.764 36.6058 21.988C36.4618 22.204 36.3298 22.416 36.2098 22.624C36.0978 22.832 36.0098 23.004 35.9458 23.14C36.0978 23.132 36.2018 23.176 36.2578 23.272C36.3138 23.36 36.3298 23.424 36.3058 23.464C36.2418 23.448 36.1978 23.44 36.1738 23.44C36.0538 23.44 35.9418 23.484 35.8378 23.572C35.7338 23.652 35.6458 23.772 35.5738 23.932C35.5018 24.084 35.4658 24.232 35.4658 24.376C35.4658 24.568 35.5218 24.708 35.6338 24.796C35.7458 24.884 35.8778 24.928 36.0298 24.928C36.2058 24.928 36.3658 24.88 36.5098 24.784ZM39.2647 25.096C39.0967 25.096 38.9407 25.064 38.7967 25C38.6607 24.928 38.5487 24.808 38.4607 24.64C38.3967 24.496 38.3647 24.34 38.3647 24.172C38.3647 23.996 38.3967 23.832 38.4607 23.68C38.5247 23.544 38.5967 23.424 38.6767 23.32C38.7567 23.216 38.8447 23.156 38.9407 23.14C39.0127 22.98 39.1207 22.768 39.2647 22.504C39.4167 22.24 39.5847 21.976 39.7687 21.712C39.9607 21.448 40.1407 21.236 40.3087 21.076C40.3487 21.036 40.4167 20.972 40.5127 20.884C40.6167 20.788 40.7327 20.696 40.8607 20.608C40.9967 20.52 41.1207 20.468 41.2327 20.452C41.2567 20.444 41.2887 20.44 41.3287 20.44C41.4247 20.44 41.4967 20.464 41.5447 20.512C41.5927 20.56 41.6167 20.616 41.6167 20.68C41.6167 20.744 41.5927 20.808 41.5447 20.872C41.4967 20.936 41.4207 20.988 41.3167 21.028C41.2767 21.036 41.2167 21.048 41.1367 21.064C41.0647 21.08 40.9567 21.088 40.8127 21.088C40.7567 21.168 40.7287 21.28 40.7287 21.424C40.7287 21.584 40.7527 21.764 40.8007 21.964C40.8567 22.164 40.9087 22.36 40.9567 22.552C41.0127 22.736 41.0407 22.892 41.0407 23.02C41.0567 23.316 41.0087 23.616 40.8967 23.92C40.7927 24.216 40.6247 24.468 40.3927 24.676L40.2247 24.796C40.2487 24.804 40.2727 24.812 40.2967 24.82C40.3207 24.82 40.3447 24.82 40.3687 24.82C40.5047 24.82 40.6567 24.78 40.8247 24.7C40.9927 24.612 41.1407 24.504 41.2687 24.376C41.4607 24.192 41.6247 23.996 41.7607 23.788C41.9047 23.58 42.0367 23.364 42.1567 23.14C42.1647 23.108 42.1847 23.092 42.2167 23.092C42.2567 23.092 42.2767 23.124 42.2767 23.188C42.2767 23.22 42.2647 23.256 42.2407 23.296C42.1207 23.52 41.9727 23.756 41.7967 24.004C41.6287 24.244 41.4527 24.448 41.2687 24.616C41.1247 24.744 40.9687 24.84 40.8007 24.904C40.6407 24.96 40.5047 24.988 40.3927 24.988C40.3127 24.988 40.2487 24.98 40.2007 24.964C40.1527 24.948 40.1087 24.924 40.0687 24.892C39.9567 24.948 39.8287 24.996 39.6847 25.036C39.5487 25.076 39.4087 25.096 39.2647 25.096ZM39.7207 24.784C39.8807 24.672 40.0047 24.528 40.0927 24.352C40.1887 24.176 40.2607 23.988 40.3087 23.788C40.3727 23.548 40.4087 23.3 40.4167 23.044C40.4327 22.788 40.4407 22.556 40.4407 22.348V21.928C40.4407 21.76 40.4607 21.588 40.5007 21.412C40.5487 21.236 40.5967 21.128 40.6447 21.088C40.5247 21.136 40.3927 21.244 40.2487 21.412C40.1047 21.572 39.9607 21.764 39.8167 21.988C39.6727 22.204 39.5407 22.416 39.4207 22.624C39.3087 22.832 39.2207 23.004 39.1567 23.14C39.3087 23.132 39.4127 23.176 39.4687 23.272C39.5247 23.36 39.5407 23.424 39.5167 23.464C39.4527 23.448 39.4087 23.44 39.3847 23.44C39.2647 23.44 39.1527 23.484 39.0487 23.572C38.9447 23.652 38.8567 23.772 38.7847 23.932C38.7127 24.084 38.6767 24.232 38.6767 24.376C38.6767 24.568 38.7327 24.708 38.8447 24.796C38.9567 24.884 39.0887 24.928 39.2407 24.928C39.4167 24.928 39.5767 24.88 39.7207 24.784ZM43.3037 25.096C42.8397 25.096 42.5117 24.976 42.3197 24.736C42.2237 24.632 42.1557 24.508 42.1157 24.364C42.0757 24.22 42.0557 24.072 42.0557 23.92C42.0557 23.728 42.0797 23.536 42.1277 23.344C42.1757 23.144 42.2357 22.96 42.3077 22.792C42.4197 22.528 42.5677 22.264 42.7517 22C42.9357 21.728 43.1557 21.5 43.4117 21.316C43.6757 21.132 43.9637 21.04 44.2757 21.04C44.4837 21.04 44.6477 21.092 44.7677 21.196C44.8877 21.3 44.9477 21.46 44.9477 21.676C44.9477 21.924 44.8717 22.176 44.7197 22.432C44.5677 22.68 44.3757 22.888 44.1437 23.056C43.9117 23.224 43.6717 23.308 43.4237 23.308C43.1997 23.308 43.0037 23.228 42.8357 23.068C42.7877 23.196 42.7477 23.34 42.7157 23.5C42.6837 23.652 42.6677 23.808 42.6677 23.968C42.6677 24.216 42.7157 24.432 42.8117 24.616C42.9157 24.8 43.0997 24.892 43.3637 24.892C43.5557 24.892 43.7397 24.844 43.9157 24.748C44.0997 24.644 44.2637 24.52 44.4077 24.376C44.5677 24.208 44.7197 24.028 44.8637 23.836C45.0077 23.644 45.1477 23.42 45.2837 23.164C45.2997 23.14 45.3117 23.128 45.3197 23.128C45.3517 23.128 45.3677 23.164 45.3677 23.236C45.3677 23.284 45.3517 23.336 45.3197 23.392C45.1997 23.608 45.0597 23.828 44.8997 24.052C44.7397 24.268 44.5757 24.456 44.4077 24.616C44.2557 24.76 44.0917 24.876 43.9157 24.964C43.7397 25.052 43.5357 25.096 43.3037 25.096ZM42.8957 22.888C42.9517 22.968 43.0157 23.028 43.0877 23.068C43.1677 23.1 43.2477 23.116 43.3277 23.116C43.5197 23.116 43.7197 23.044 43.9277 22.9C44.1357 22.748 44.3037 22.572 44.4317 22.372C44.4877 22.284 44.5357 22.168 44.5757 22.024C44.6237 21.88 44.6477 21.744 44.6477 21.616C44.6477 21.504 44.6237 21.408 44.5757 21.328C44.5357 21.24 44.4517 21.196 44.3237 21.196C44.1797 21.196 44.0077 21.284 43.8077 21.46C43.6157 21.636 43.4317 21.864 43.2557 22.144C43.1997 22.24 43.1357 22.352 43.0637 22.48C42.9997 22.608 42.9437 22.744 42.8957 22.888Z" fill="white"/>
</svg>
